<svg xmlns="http://www.w3.org/2000/svg" viewBox="0 0 48 48" fill="none" aria-label="Registrony - ITT Fermi" role="img">
  <!-- Sfondo scuro -->
  <rect width="48" height="48" rx="10" fill="#0f1e30"/>

  <!-- Ingranaggio esterno (bordo dentato) -->
  <path d="
    M24 5
    L25.8 8.2 L29.4 7.5 L30.2 11 L33.6 11.8 L32.5 15.2
    L35.5 17.2 L33.5 20.2 L35.5 23.5 L32.2 25
    L33 28.6 L29.5 29.4 L28.8 33 L25.2 32.2
    L24 35.5 L22.8 32.2 L19.2 33 L18.5 29.4
    L15 28.6 L15.8 25 L12.5 23.5 L14.5 20.2
    L12.5 17.2 L15.5 15.2 L14.4 11.8 L17.8 11
    L18.6 7.5 L22.2 8.2 Z
  " fill="#1e3a5f" stroke="#2563eb" stroke-width="0.8"/>

  <!-- Cerchio interno bianco -->
  <circle cx="24" cy="20.5" r="11" fill="#0f1e30" stroke="#3b82f6" stroke-width="1"/>
  <circle cx="24" cy="20.5" r="9.5" fill="#1e3a5f"/>

  <!-- Antenna parabolica (ispirata logo Fermi) -->
  <path d="M20 17 Q24 12.5 28 17" stroke="#93c5fd" stroke-width="1.4" stroke-linecap="round" fill="none"/>
  <path d="M21.5 18.5 Q24 15 26.5 18.5" stroke="#93c5fd" stroke-width="1.2" stroke-linecap="round" fill="none"/>
  <line x1="24" y1="19" x2="24" y2="26" stroke="#93c5fd" stroke-width="1.3" stroke-linecap="round"/>
  <line x1="21" y1="26" x2="27" y2="26" stroke="#3b82f6" stroke-width="1.3" stroke-linecap="round"/>

  <!-- Squadra (strumento tecnico) -->
  <path d="M15.5 25.5 L15.5 30 L20 30" stroke="#60a5fa" stroke-width="1.3" stroke-linecap="round" stroke-linejoin="round" fill="none"/>

  <!-- Testo FERMI in basso -->
  <text x="24" y="40" font-family="Arial, sans-serif" font-size="4.5" font-weight="700" fill="#93c5fd" text-anchor="middle" letter-spacing="1.5">FERMI</text>
</svg>