<svg version="1.1" xmlns="http://www.w3.org/2000/svg" viewBox="0 0 1773 2048" preserveAspectRatio="xMidYMid meet"><path transform="translate(0,0)" fill="rgb(23,106,243)" d="M 481.559 117.278 L 1153.52 117.259 L 1338.32 117.125 C 1418.36 117.039 1482.82 110.372 1544.2 172.799 C 1585.48 214.789 1600.96 258.999 1601.07 317.204 L 1601.04 1284.09 L 1601.08 1565.88 L 1601.09 1646.97 C 1601.09 1669.64 1601.92 1687.41 1598.82 1710.04 C 1592.92 1753.13 1576.74 1788.14 1545.73 1819.29 C 1510.61 1855.21 1462.63 1875.66 1412.4 1876.12 L 609.926 1875.95 C 609.972 1887.11 611.581 1950.5 608.243 1957.05 C 607.159 1957.76 606.328 1958.73 604.951 1958.54 C 600.334 1957.89 526.793 1897.28 518.838 1889.61 C 498.691 1904.94 479.99 1921.98 460.211 1937.78 C 450.434 1945.59 439.826 1955 428.999 1961.2 C 425.794 1943.49 427.022 1896.07 427.069 1875.59 C 412.331 1875.9 385.272 1876.79 371.089 1875.7 C 332.027 1872.74 294.863 1857.66 264.789 1832.56 C 260.153 1829.31 252.777 1821.55 248.985 1817.28 C 246.278 1815.68 240.086 1808.69 238.018 1806.16 C 218.304 1782.06 204.425 1749.35 199.775 1718.52 C 195.521 1690.32 196.531 1656.79 196.53 1628.1 L 196.228 1511.89 L 196.458 1351.39 C 196.503 1316.55 195.167 1283.24 198.071 1248.5 C 233.661 1245.35 288.958 1256.99 315.147 1232.1 C 326.598 1221.36 333.136 1206.39 333.232 1190.69 C 333.479 1174.7 328.215 1161.23 317.148 1149.72 C 296.775 1128.53 272.967 1131.9 245.897 1132.01 C 230.093 1132.16 214.287 1132.06 198.486 1131.72 C 195.448 1113.17 196.119 1090.81 196.16 1071.88 L 196.349 996.554 C 196.38 973.786 194.792 908.242 198.67 889.591 C 214.455 888.762 279.876 890.015 289.207 887.678 C 299.156 885.223 308.244 880.094 315.487 872.845 C 339.056 849.398 339.71 814.105 316.246 790.231 C 297.919 771.584 277.565 773.728 253.599 773.734 C 234.892 773.739 215.926 773.693 197.135 773.732 C 195.301 738.667 196.403 703.811 196.305 668.715 C 196.188 626.962 195.138 587.731 197.888 546.043 C 213.073 545.923 228.258 545.903 243.443 545.984 C 269.327 546.003 294.977 548.523 315.427 529.27 C 326.535 518.866 332.917 504.379 333.096 489.161 C 333.728 455.984 308.747 429.667 275.581 429.761 C 249.976 429.834 223.91 429.494 198.306 429.028 C 196.554 420.684 195.975 410.547 195.937 402.024 L 196.216 336.367 C 196.599 268.551 201.457 224.31 251.823 172.564 C 317.053 105.548 396.26 117.195 481.559 117.278 z"/>
<path transform="translate(0,0)" fill="rgb(0,75,191)" d="M 198.306 429.028 C 196.554 420.684 195.975 410.547 195.937 402.024 L 196.216 336.367 C 196.599 268.551 201.457 224.31 251.823 172.564 C 317.053 105.548 396.26 117.195 481.559 117.278 C 475.742 118.515 469.252 118.21 463.239 118.189 L 463.141 1610.41 C 463.199 1618.35 463.128 1667.88 465.001 1670.74 C 466.52 1670.89 467.949 1671.08 469.465 1671.07 C 473.702 1671.69 476.971 1672.16 481.296 1672.37 C 479.196 1672.68 477.09 1672.96 474.981 1673.19 C 441.937 1673.81 408.888 1674.03 375.839 1673.88 C 363.474 1673.87 349.057 1674.4 336.858 1673.88 C 301.198 1672.35 281.135 1680.95 266.072 1715.21 C 263.663 1727.96 262.595 1733.49 263.428 1746.24 C 266.392 1762.65 269.836 1772.63 280.092 1785.98 C 316.801 1833.75 373.3 1827.92 427.198 1827.82 C 427.997 1832.49 427.075 1868.49 427.069 1875.59 C 412.331 1875.9 385.272 1876.79 371.089 1875.7 C 332.027 1872.74 294.863 1857.66 264.789 1832.56 C 260.153 1829.31 252.777 1821.55 248.985 1817.28 C 246.278 1815.68 240.086 1808.69 238.018 1806.16 C 218.304 1782.06 204.425 1749.35 199.775 1718.52 C 195.521 1690.32 196.531 1656.79 196.53 1628.1 L 196.228 1511.89 L 196.458 1351.39 C 196.503 1316.55 195.167 1283.24 198.071 1248.5 C 233.661 1245.35 288.958 1256.99 315.147 1232.1 C 326.598 1221.36 333.136 1206.39 333.232 1190.69 C 333.479 1174.7 328.215 1161.23 317.148 1149.72 C 296.775 1128.53 272.967 1131.9 245.897 1132.01 C 230.093 1132.16 214.287 1132.06 198.486 1131.72 C 195.448 1113.17 196.119 1090.81 196.16 1071.88 L 196.349 996.554 C 196.38 973.786 194.792 908.242 198.67 889.591 C 214.455 888.762 279.876 890.015 289.207 887.678 C 299.156 885.223 308.244 880.094 315.487 872.845 C 339.056 849.398 339.71 814.105 316.246 790.231 C 297.919 771.584 277.565 773.728 253.599 773.734 C 234.892 773.739 215.926 773.693 197.135 773.732 C 195.301 738.667 196.403 703.811 196.305 668.715 C 196.188 626.962 195.138 587.731 197.888 546.043 C 213.073 545.923 228.258 545.903 243.443 545.984 C 269.327 546.003 294.977 548.523 315.427 529.27 C 326.535 518.866 332.917 504.379 333.096 489.161 C 333.728 455.984 308.747 429.667 275.581 429.761 C 249.976 429.834 223.91 429.494 198.306 429.028 z"/>
<path transform="translate(0,0)" fill="rgb(4,38,130)" d="M 263.428 1746.24 L 262.872 1747.54 L 262.16 1747.15 C 259.96 1736.9 260.02 1725.89 263.801 1716.02 L 266.072 1715.21 C 263.663 1727.96 262.595 1733.49 263.428 1746.24 z"/>
<path transform="translate(0,0)" fill="rgb(17,95,211)" d="M 248.985 1817.28 C 254.802 1817.82 264.566 1827.18 264.789 1832.56 C 260.153 1829.31 252.777 1821.55 248.985 1817.28 z"/>
<path transform="translate(0,0)" fill="rgb(254,254,254)" d="M 1442.47 1670.6 C 1474.76 1665.71 1503.2 1651.99 1528.64 1631.56 C 1536.78 1625.03 1543.95 1617.62 1551.74 1611.08 C 1552.09 1628.25 1552.2 1645.42 1552.08 1662.59 C 1552.03 1687.82 1552.23 1709.53 1543.2 1733.68 C 1531 1766.35 1512.8 1788.32 1484.08 1807.29 C 1476.91 1810.99 1469.07 1815.25 1461.73 1818.43 C 1454.79 1820.56 1438.03 1824.34 1432.48 1826.87 C 1405.32 1828.85 1373.31 1828.07 1345.7 1828.06 L 1210.96 1828.07 L 844.488 1828.07 C 781.116 1828.03 711.472 1826.51 648.652 1828.14 C 636.709 1827.53 621.385 1828.03 609.195 1828.1 C 608.828 1812.75 611.615 1737.86 608.039 1727.15 C 604.411 1725.33 599.941 1724.8 595.93 1724.36 C 574.472 1721.99 549.201 1723.83 527.401 1723.85 C 499.281 1723.89 470.444 1722.53 442.407 1724.04 C 439.85 1724.17 431.796 1724.43 430.183 1726.19 C 425.419 1731.39 426.941 1814.42 427.198 1827.82 C 373.3 1827.92 316.801 1833.75 280.092 1785.98 C 269.836 1772.63 266.392 1762.65 263.428 1746.24 C 262.595 1733.49 263.663 1727.96 266.072 1715.21 C 281.135 1680.95 301.198 1672.35 336.858 1673.88 C 349.057 1674.4 363.474 1673.87 375.839 1673.88 C 408.888 1674.03 441.937 1673.81 474.981 1673.19 C 506.023 1675.29 553.895 1673.74 586.19 1673.7 L 802.697 1673.64 L 1211.7 1673.66 L 1348.68 1673.55 C 1372.58 1673.59 1420.83 1674.85 1442.47 1670.6 z"/>
<path transform="translate(0,0)" fill="rgb(4,38,130)" d="M 648.652 1828.14 C 711.472 1826.51 781.116 1828.03 844.488 1828.07 L 1210.96 1828.07 L 1345.7 1828.06 C 1373.31 1828.07 1405.32 1828.85 1432.48 1826.87 C 1425.1 1832.25 1376.33 1830.55 1364.16 1830.55 L 1264.27 1830.86 L 806.638 1830.98 L 692.488 1830.76 C 683.232 1830.73 649.916 1831.56 642.713 1829.37 C 644.879 1829.07 646.606 1828.95 648.652 1828.14 z"/>
<path transform="translate(0,0)" fill="rgb(17,95,211)" d="M 469.465 1671.07 C 550.69 1667.77 634.706 1669.57 716.098 1670.51 C 744.21 1670.83 774.15 1669.18 801.92 1671.76 C 802.749 1673.2 802.605 1672.54 802.697 1673.64 L 586.19 1673.7 C 553.895 1673.74 506.023 1675.29 474.981 1673.19 C 477.09 1672.96 479.196 1672.68 481.296 1672.37 C 476.971 1672.16 473.702 1671.69 469.465 1671.07 z"/>
<path transform="translate(0,0)" fill="rgb(17,95,211)" d="M 1211.7 1673.66 L 1214.57 1671.86 C 1285.92 1668.48 1358.88 1670.22 1430.34 1669.97 C 1435.34 1669.95 1437.14 1669.01 1442.47 1670.6 C 1420.83 1674.85 1372.58 1673.59 1348.68 1673.55 L 1211.7 1673.66 z"/>
<path transform="translate(0,0)" fill="rgb(17,95,211)" d="M 1484.08 1807.29 L 1485.24 1809.22 C 1481.34 1813.91 1467.61 1820.4 1461.73 1818.43 C 1469.07 1815.25 1476.91 1810.99 1484.08 1807.29 z"/>
<path transform="translate(0,0)" fill="rgb(254,254,254)" d="M 665.323 834.374 C 660.316 830.223 651.426 823.352 650.402 817.185 C 647.093 797.272 648.241 770.823 648.241 750.477 L 648.261 649.086 L 648.252 505.725 C 648.24 481.466 647.895 457.109 648.324 432.859 C 648.867 424.984 648.78 417.875 652.868 410.913 C 664.328 391.401 684.013 395.312 703.064 394.903 C 713.77 394.674 724.624 394.892 735.357 394.896 L 873.362 394.908 L 1200.79 394.9 C 1255.66 394.892 1310.54 394.781 1365.41 394.937 C 1384.6 394.992 1397.09 403.292 1401.11 422.818 C 1404.88 427.526 1403.52 475.303 1403.52 484.178 C 1403.39 519.951 1403.46 555.724 1403.73 591.497 C 1404.63 640.225 1404.79 688.965 1404.23 737.699 C 1404.17 748.62 1405.46 806.77 1400.93 813.408 L 1400.11 815.085 C 1394.56 827.025 1388.45 833.587 1375.49 836.9 L 1372.28 837.753 C 1366.89 840.861 1327.63 839.97 1318.3 840.083 C 1282.25 840.613 1246.19 840.925 1210.14 841.021 L 1059 840.802 C 1024.79 840.46 990.496 839.155 956.168 839.807 C 940.633 840.102 925.283 840.933 909.752 841.052 C 851.895 841.62 794.033 841.413 736.182 840.431 C 719.076 840.294 701.904 840.474 684.799 840.244 C 678.275 840.157 668.844 840.64 665.323 834.374 z"/>
<path transform="translate(0,0)" fill="rgb(4,38,130)" d="M 665.323 834.374 C 671.39 836.883 675.098 837.704 681.733 837.837 C 716.809 838.54 752.298 838.247 787.384 838.323 L 999.992 838.462 L 1250.04 838.378 C 1289.04 838.281 1333.64 839.297 1372.28 837.753 C 1366.89 840.861 1327.63 839.97 1318.3 840.083 C 1282.25 840.613 1246.19 840.925 1210.14 841.021 L 1059 840.802 C 1024.79 840.46 990.496 839.155 956.168 839.807 C 940.633 840.102 925.283 840.933 909.752 841.052 C 851.895 841.62 794.033 841.413 736.182 840.431 C 719.076 840.294 701.904 840.474 684.799 840.244 C 678.275 840.157 668.844 840.64 665.323 834.374 z"/>
<path transform="translate(0,0)" fill="rgb(17,95,211)" d="M 1401.11 422.818 C 1404.88 427.526 1403.52 475.303 1403.52 484.178 C 1403.39 519.951 1403.46 555.724 1403.73 591.497 C 1404.63 640.225 1404.79 688.965 1404.23 737.699 C 1404.17 748.62 1405.46 806.77 1400.93 813.408 C 1401.37 798.597 1401.86 784.024 1401.71 769.187 C 1400.5 653.992 1403.66 537.939 1401.11 422.818 z"/>
<path transform="translate(0,0)" fill="rgb(23,106,243)" d="M 1260.63 532.208 C 1268.01 532.001 1278.67 531.293 1285.43 533.486 C 1298.29 538.073 1298.68 551.235 1288.02 558.781 C 1265.8 561.049 1233.67 560.11 1210.63 560.109 L 1081.23 560.099 L 881.733 560.115 C 845.323 560.165 808.905 560.445 772.498 560.104 C 765.063 560.035 761.211 559.029 757.26 552.416 C 745.336 525.693 792.971 531.943 807.584 532.132 L 931.072 532.081 C 952.947 532.092 977.353 531.591 999.052 532.267 L 1169.55 532.143 C 1199.18 532.138 1231.31 531.426 1260.63 532.208 z"/>
<path transform="translate(0,0)" fill="rgb(4,38,130)" d="M 1285.43 533.486 C 1298.29 538.073 1298.68 551.235 1288.02 558.781 C 1265.8 561.049 1233.67 560.11 1210.63 560.109 L 1081.23 560.099 L 881.733 560.115 C 845.323 560.165 808.905 560.445 772.498 560.104 C 765.063 560.035 761.211 559.029 757.26 552.416 L 758.783 551.938 C 764.447 557.808 767.888 558.909 776.192 559.057 C 779.662 559.111 783.134 559.094 786.604 559.006 C 796.578 559.792 813.001 558.877 823.019 558.134 L 1132.69 557.895 L 1224.98 558.075 C 1242.01 558.118 1259.03 558.327 1276.09 557.942 C 1282.77 557.863 1292.54 556.993 1292.62 548.139 C 1292.7 540.188 1288.99 538.569 1285.43 533.486 z"/>
<path transform="translate(0,0)" fill="rgb(4,38,130)" d="M 999.052 532.267 L 1169.55 532.143 C 1199.18 532.138 1231.31 531.426 1260.63 532.208 C 1260.55 533.073 1260.69 532.506 1259.54 533.578 C 1241.09 535.453 1221.61 534.146 1203 534.149 L 1111.75 534.861 C 1078.44 535.098 1045.13 535.159 1011.82 535.043 C 997.313 534.998 970.17 535.61 957.107 533.401 C 967.218 532.258 987.572 532.653 999.052 532.267 z"/>
<path transform="translate(0,0)" fill="rgb(4,38,130)" d="M 757.26 552.416 C 745.336 525.693 792.971 531.943 807.584 532.132 L 813.93 533.505 C 795.855 535.296 755.079 527.644 758.783 551.938 L 757.26 552.416 z"/>
<path transform="translate(0,0)" fill="rgb(0,75,191)" d="M 786.604 559.006 C 794.199 557.436 814.934 557.789 823.019 558.134 C 813.001 558.877 796.578 559.792 786.604 559.006 z"/>
<path transform="translate(0,0)" fill="rgb(23,106,243)" d="M 757.502 682.587 C 759.68 679.734 762.641 676.535 766.403 676.292 C 785.178 675.08 805.819 675.676 824.517 675.806 L 929.273 675.868 L 1148.8 675.883 C 1190.54 675.828 1232.48 675.632 1274.23 676.05 C 1279.33 676.101 1286.1 676.081 1290.15 679.226 C 1293.08 681.506 1294.91 684.913 1295.2 688.611 C 1295.48 692.425 1294.2 696.189 1291.63 699.028 C 1287.07 704.013 1280.3 703.932 1273.99 703.923 L 1243.52 703.685 C 1143.54 705.373 1039.55 703.549 938.982 703.694 L 823.438 703.871 C 806.396 703.903 788.797 704.12 771.735 704.067 C 767.323 703.745 763.156 701.778 759.653 699.437 C 754.257 695.829 753.532 687.671 757.502 682.587 z"/>
<path transform="translate(0,0)" fill="rgb(4,38,130)" d="M 757.502 682.587 C 759.68 679.734 762.641 676.535 766.403 676.292 C 785.178 675.08 805.819 675.676 824.517 675.806 L 929.273 675.868 L 1148.8 675.883 C 1190.54 675.828 1232.48 675.632 1274.23 676.05 C 1279.33 676.101 1286.1 676.081 1290.15 679.226 C 1293.08 681.506 1294.91 684.913 1295.2 688.611 C 1295.48 692.425 1294.2 696.189 1291.63 699.028 C 1287.07 704.013 1280.3 703.932 1273.99 703.923 L 1243.52 703.685 C 1234.35 702.56 1220.2 702.896 1210.5 702.487 C 1228.54 701.835 1246.61 702.477 1264.81 702.311 C 1273.28 702.233 1289.08 703.318 1292.4 692.497 C 1293.89 687.67 1289.38 679.673 1284.75 679.289 C 1271.1 678.154 1253.76 678.673 1240.08 678.645 L 1106.19 678.645 L 889.309 678.746 C 849.666 678.689 809.814 678.645 770.158 678.677 C 767.436 678.636 764.829 679.073 762.516 680.638 C 760.824 681.784 759.621 682.364 757.502 682.587 z"/>
<path transform="translate(0,0)" fill="rgb(254,254,254)" d="M 1190.2 992.102 C 1200.97 991.516 1222.27 989.797 1224.55 1003.65 C 1227.1 1019.18 1214.61 1046.23 1209.26 1061.64 L 1179.25 1147.81 C 1157.92 1210.08 1136.17 1272.21 1114 1334.19 C 1103.82 1363.07 1094.1 1392.11 1083.41 1420.8 C 1081.92 1424.79 1079.35 1431.65 1076.12 1434.39 C 1065.89 1443.05 1046.78 1441.83 1036.47 1433.91 C 1026.55 1431.05 1031.27 1412.51 1033.65 1405.42 C 1053.95 1345.05 1076.38 1284.37 1097.35 1224.34 L 1144.31 1090.85 C 1149.12 1076.95 1171.3 1002.45 1181.43 998.159 C 1184.26 996.185 1187.32 993.938 1190.2 992.102 z"/>
<path transform="translate(0,0)" fill="rgb(0,75,191)" d="M 1036.47 1433.91 C 1026.55 1431.05 1031.27 1412.51 1033.65 1405.42 C 1053.95 1345.05 1076.38 1284.37 1097.35 1224.34 L 1144.31 1090.85 C 1149.12 1076.95 1171.3 1002.45 1181.43 998.159 C 1174.6 1009.01 1167.36 1032.22 1162.88 1045 L 1131.73 1135.66 L 1067.07 1320.3 C 1056.24 1351.25 1045.3 1382.17 1034.69 1413.2 C 1031.87 1421.45 1031.65 1426.4 1036.47 1433.91 z"/>
<path transform="translate(0,0)" fill="rgb(254,254,254)" d="M 1410.8 1223.4 C 1399.54 1213.13 1377.27 1201.5 1364 1192.77 C 1340.15 1177.07 1315.87 1161.96 1291.77 1146.63 C 1282.94 1139.65 1268.11 1133.29 1260.51 1125.09 C 1240.19 1103.18 1252.58 1061.31 1287.64 1082.19 C 1297.8 1088.24 1307.46 1095.43 1317.36 1101.64 C 1348.07 1120.87 1378.66 1140.29 1409.14 1159.9 C 1415.96 1164.27 1423.06 1168.45 1429.81 1173.03 C 1450.86 1187.32 1478.64 1197.11 1474.57 1228.14 C 1470.86 1256.32 1442.9 1262.36 1423.28 1277.85 L 1422.71 1278.31 L 1423.13 1279.78 C 1418.54 1287.2 1389.44 1305.3 1381.04 1304.58 C 1377.85 1305.74 1362.78 1315.5 1359.45 1317.66 C 1343.35 1328.13 1327.19 1338.51 1310.98 1348.81 C 1301.39 1354.91 1281.11 1369.92 1269.76 1369.21 C 1245.61 1367.71 1247.2 1333.69 1261.32 1321.09 C 1274.51 1309.33 1290.99 1300.48 1306.03 1290.97 C 1327.97 1277.17 1349.82 1263.2 1371.55 1249.08 C 1384.61 1240.71 1398.34 1232.53 1410.8 1223.4 z"/>
<path transform="translate(0,0)" fill="rgb(17,95,211)" d="M 1381.04 1304.58 C 1390.83 1297.36 1412.06 1284.6 1422.71 1278.31 L 1423.13 1279.78 C 1418.54 1287.2 1389.44 1305.3 1381.04 1304.58 z"/>
<path transform="translate(0,0)" fill="rgb(254,254,254)" d="M 774.232 1367.54 C 770.188 1363.62 744.616 1348.88 738.217 1344.88 L 649.778 1288.88 C 631.185 1277.19 608.212 1264.11 591.83 1250.04 C 583.409 1242.33 581.145 1235.97 580.666 1224.99 C 579.384 1195.57 610.504 1182.75 633.032 1168.39 L 693.007 1130.15 C 717.906 1114.44 742.685 1098.42 767.939 1082.79 C 803.702 1060.65 814.018 1103.54 795.238 1124.47 C 788.749 1131.7 770.48 1141.5 761.261 1147.43 L 688.026 1194.26 C 674.449 1202.91 656.813 1213.25 644.443 1222.99 C 654.979 1231.33 671.054 1241.1 682.702 1248.6 C 706.868 1264.13 731.127 1279.51 755.48 1294.74 C 768.181 1302.73 784.309 1311.88 795.412 1321.78 C 799.284 1325.24 801.825 1332.3 803.608 1337.21 C 816.698 1348.67 792.16 1388.79 774.232 1367.54 z"/>
<path transform="translate(0,0)" fill="rgb(0,75,191)" d="M 803.608 1337.21 C 816.698 1348.67 792.16 1388.79 774.232 1367.54 C 798.744 1375.14 805.55 1358.24 803.608 1337.21 z"/>
<path transform="translate(0,0)" fill="rgb(254,254,254)" d="M 940.906 1145.81 C 957.51 1125.38 972.694 1111.04 1000.07 1108.3 C 1009.51 1107.35 1026.5 1107.6 1033.96 1112.12 C 1039.65 1115.57 1037.92 1164.89 1033.8 1166.65 C 1025.32 1170.28 1004.04 1165.96 991.795 1169.67 L 992.11 1171.01 C 989.683 1173.07 981.45 1174.97 977.624 1176.72 C 958.106 1185.52 947.605 1206.32 946.011 1226.91 C 942.517 1272.04 945.136 1317.41 943.25 1362.57 C 942.974 1369.17 939.508 1380.69 930.591 1376.21 C 920.583 1372.64 896.192 1380.3 881.393 1370.91 L 880.058 1371.09 C 877.322 1367.89 877.746 1364.36 877.542 1360.43 C 876.063 1331.85 875.88 1303.65 876.011 1275.04 C 876.22 1229.36 875.359 1183.64 876.6 1137.96 C 876.753 1132.34 876.522 1121.67 880.756 1117.63 C 884.188 1114.25 886.785 1112.51 891.711 1112.48 C 902.719 1112.4 928.396 1109.17 937.299 1115.17 C 941.899 1122.17 940.876 1137.06 940.906 1145.81 z"/>
<path transform="translate(0,0)" fill="rgb(17,95,211)" d="M 881.393 1370.91 L 880.058 1371.09 C 877.322 1367.89 877.746 1364.36 877.542 1360.43 C 876.063 1331.85 875.88 1303.65 876.011 1275.04 C 876.22 1229.36 875.359 1183.64 876.6 1137.96 C 876.753 1132.34 876.522 1121.67 880.756 1117.63 C 879.087 1141.62 878.491 1362.14 881.393 1370.91 z"/>
<path transform="translate(0,0)" fill="rgb(4,38,130)" d="M 930.591 1376.21 C 945.332 1371.51 941.873 1351.46 941.848 1338.25 L 941.7 1272.96 C 941.713 1257.12 941.34 1235.91 944.219 1220.8 C 945.942 1211.55 949.395 1202.72 954.398 1194.75 C 963.925 1179.78 974.917 1173.28 991.795 1169.67 L 992.11 1171.01 C 989.683 1173.07 981.45 1174.97 977.624 1176.72 C 958.106 1185.52 947.605 1206.32 946.011 1226.91 C 942.517 1272.04 945.136 1317.41 943.25 1362.57 C 942.974 1369.17 939.508 1380.69 930.591 1376.21 z"/>
<path transform="translate(0,0)" fill="rgb(0,75,191)" d="M 150.677 1158.78 C 173.22 1157.79 196.095 1158.67 218.671 1158.36 C 229.343 1158.27 240.085 1157.96 250.751 1157.87 C 261.305 1157.78 272.009 1157.58 282.435 1159.27 C 291.649 1160.77 299.13 1167.32 303.393 1175.44 C 305.626 1179.69 308.022 1183.91 308.098 1189.02 C 308.299 1202.63 299.038 1217.2 285.593 1220.95 C 280.421 1222.39 274.973 1222.38 269.67 1222.7 C 245.734 1223.17 221.712 1222.18 197.768 1222.42 C 197.585 1222.39 197.402 1222.35 197.22 1222.32 C 189.227 1222.59 180.118 1222.98 172.116 1222.46 C 137.535 1220.2 111.229 1231.88 99.4627 1189.93 C 106.375 1158.04 123.365 1158.38 150.677 1158.78 z"/>
<path transform="translate(0,0)" fill="rgb(23,106,243)" d="M 99.4627 1189.93 C 106.375 1158.04 123.365 1158.38 150.677 1158.78 C 164.009 1159.8 183.818 1159.31 197.59 1159.16 C 197.734 1167.18 199.262 1218.05 197.22 1222.32 C 189.227 1222.59 180.118 1222.98 172.116 1222.46 C 137.535 1220.2 111.229 1231.88 99.4627 1189.93 z"/>
<path transform="translate(0,0)" fill="rgb(0,75,191)" d="M 173.234 455.392 C 196.038 455.287 218.418 454.202 241.654 454.231 C 261.745 454.257 281.262 450.754 298.295 464.742 C 317.053 480.146 305.56 516.266 283.267 518.104 C 263.156 519.762 238.894 518.785 217.906 518.788 L 161.9 518.772 C 153.53 518.765 136.74 519.498 128.923 518.12 C 110.387 518.838 103.512 501.195 99.3279 486.611 C 106.64 458.782 118.709 454.831 145.995 454.942 C 154.962 454.978 164.243 455.21 173.234 455.392 z"/>
<path transform="translate(0,0)" fill="rgb(23,106,243)" d="M 99.3279 486.611 C 106.64 458.782 118.709 454.831 145.995 454.942 C 154.962 454.978 164.243 455.21 173.234 455.392 C 176.965 457.321 192.827 455.961 197.669 455.616 C 197.211 476.305 197.014 496.998 197.077 517.691 C 180.166 517.674 144.284 516.679 128.923 518.12 C 110.387 518.838 103.512 501.195 99.3279 486.611 z"/>
<path transform="translate(0,0)" fill="rgb(0,75,191)" d="M 196.291 799.583 C 202.455 798.734 215.195 798.156 221.364 798.632 C 249.567 800.81 301.718 786.508 307.195 827.381 C 308.308 835.981 305.884 844.663 300.478 851.443 C 294.375 859.17 285.899 862.68 276.344 863.251 C 250.124 864.818 223.318 862.657 197.087 862.96 C 197.149 842.293 198.546 821.862 198.255 800.692 L 196.291 799.583 z"/>
<path transform="translate(0,0)" fill="rgb(23,106,243)" d="M 99.4125 830.978 C 105.214 806.328 114.641 799.8 140.14 799.63 C 158.697 799.506 177.772 800.216 196.291 799.583 L 198.255 800.692 C 198.546 821.862 197.149 842.293 197.087 862.96 C 177.923 862.676 130.752 866.667 116.562 858.276 C 105.579 851.781 102.514 842.549 99.4125 830.978 z"/>
</svg>