<?xml version="1.0" standalone="no"?>
<!DOCTYPE svg PUBLIC "-//W3C//DTD SVG 20010904//EN"
 "http://www.w3.org/TR/2001/REC-SVG-20010904/DTD/svg10.dtd">
<svg version="1.0" xmlns="http://www.w3.org/2000/svg"
 width="930.000000pt" height="1074.000000pt" viewBox="0 0 930.000000 1074.000000"
 preserveAspectRatio="xMidYMid meet">

<g transform="translate(0.000000,1074.000000) scale(0.100000,-0.100000)"
fill="#000000" stroke="none">
<path d="M1895 10107 c-250 -49 -342 -87 -484 -201 -169 -136 -293 -323 -336
-511 -9 -38 -19 -73 -22 -78 -3 -5 -7 -30 -8 -55 -6 -84 -6 -755 0 -760 5 -5
128 -9 373 -13 73 -1 129 -7 136 -13 6 -6 18 -12 26 -14 25 -6 100 -72 126
-112 23 -34 48 -130 45 -175 -4 -90 -20 -130 -73 -190 -40 -47 -115 -98 -129
-89 -6 3 -15 0 -20 -7 -7 -11 -55 -14 -246 -14 l-238 0 -3 -598 -2 -598 242 1
c278 2 287 0 370 -78 73 -68 90 -108 93 -216 3 -109 -17 -157 -95 -230 -85
-80 -91 -81 -365 -81 l-240 0 0 -635 0 -635 250 -5 c231 -5 253 -7 290 -27 77
-41 155 -142 155 -200 0 -13 5 -33 11 -44 11 -21 -2 -102 -22 -141 -5 -10 -9
-24 -9 -31 0 -21 -126 -137 -148 -137 -11 0 -26 -7 -33 -16 -12 -14 -42 -16
-254 -13 l-240 4 -2 -1210 c-2 -1024 0 -1218 12 -1264 8 -30 12 -58 9 -63 -3
-5 -1 -14 4 -21 6 -7 13 -24 15 -37 2 -14 8 -34 12 -45 58 -144 143 -280 222
-356 99 -95 268 -207 327 -216 11 -2 24 -7 30 -12 6 -5 49 -19 96 -31 69 -19
122 -24 280 -29 l195 -6 3 -205 c1 -112 6 -208 11 -213 10 -10 93 48 191 131
191 162 255 212 269 212 19 -1 59 -31 218 -165 156 -133 233 -189 244 -178 5
5 10 101 11 213 l3 205 2175 5 2175 5 75 21 c123 35 214 73 300 127 65 40 189
140 190 153 0 5 16 26 36 45 84 80 179 263 213 410 32 139 33 320 28 3954 -6
3593 -6 3621 -26 3710 -24 105 -47 169 -95 259 -73 136 -133 209 -262 314 -29
23 -55 42 -59 42 -4 0 -19 8 -33 19 -54 37 -141 81 -183 91 -24 6 -62 16 -84
21 -22 6 -69 14 -105 19 -81 11 -5590 18 -5645 7z m5367 -1459 c22 -13 51 -41
64 -64 l24 -41 0 -1040 0 -1040 -23 -34 c-37 -55 -79 -77 -160 -84 -39 -3
-875 -5 -1857 -3 -1677 3 -1787 4 -1817 20 -18 10 -45 35 -60 55 l-28 36 0
1051 c0 1012 1 1052 19 1082 10 17 37 43 59 58 l41 26 1849 0 1849 0 40 -22z
m-862 -3134 c39 -38 36 -79 -15 -224 -26 -74 -69 -198 -95 -275 -27 -77 -76
-219 -110 -315 -67 -191 -157 -450 -170 -490 -4 -14 -31 -90 -60 -170 -28 -80
-83 -234 -121 -342 -60 -174 -144 -409 -164 -461 -12 -30 -60 -47 -130 -47
-57 0 -69 3 -90 25 -28 27 -33 82 -14 132 12 29 90 254 240 683 48 140 127
365 174 500 48 135 129 367 180 515 147 426 153 442 188 471 28 24 37 26 99
22 52 -3 73 -9 88 -24z m-2211 -449 c34 -34 40 -116 13 -177 -23 -53 -13 -46
-664 -458 -163 -103 -156 -97 -133 -119 21 -19 125 -86 495 -319 118 -75 230
-147 249 -161 87 -65 95 -223 14 -260 -57 -26 -89 -16 -226 73 -45 29 -145 93
-222 141 -607 383 -624 395 -650 445 -22 43 -19 142 5 190 23 45 54 70 196
160 164 103 501 318 593 377 130 85 206 131 227 136 33 8 78 -4 103 -28z
m2518 24 c15 -5 82 -45 148 -88 66 -43 274 -176 462 -295 189 -120 356 -233
373 -252 69 -79 61 -203 -17 -275 -15 -15 -122 -87 -238 -160 -115 -73 -315
-199 -443 -281 -129 -82 -247 -155 -262 -163 -46 -24 -95 -19 -130 13 -57 51
-49 153 18 223 32 33 217 155 642 422 106 67 132 87 128 99 -2 4 -69 50 -150
101 -657 413 -661 415 -673 501 -10 67 8 122 48 146 37 23 54 24 94 9z m-1302
-173 l35 -15 0 -133 c0 -91 -4 -138 -12 -146 -8 -8 -48 -12 -113 -12 -134 0
-193 -18 -256 -77 -59 -55 -96 -129 -109 -220 -5 -37 -10 -219 -10 -404 0
-418 15 -384 -164 -384 -107 0 -128 3 -143 18 -18 18 -20 148 -13 1279 0 84 7
88 153 88 67 0 128 -4 135 -9 16 -10 31 -71 32 -123 l0 -37 58 61 c88 92 166
126 295 127 47 1 91 -5 112 -13z m2725 -3140 c-20 -127 -86 -265 -179 -371
-93 -106 -199 -173 -356 -226 l-70 -24 -2165 -3 -2165 -2 0 261 c0 246 -1 261
-19 275 -17 12 -95 14 -460 14 -260 0 -447 -4 -456 -10 -13 -8 -16 -52 -18
-276 l-3 -267 -192 6 c-108 4 -222 13 -260 21 -153 34 -303 149 -368 282 -31
64 -34 76 -34 169 0 118 18 166 86 240 50 54 102 83 161 91 24 3 1359 6 2968
8 2922 3 2925 3 3012 24 167 40 310 114 443 229 l80 69 3 -220 c1 -122 -2
-252 -8 -290z"/>
<path d="M3990 7932 c-34 -27 -31 -78 4 -109 l27 -23 1358 0 1358 0 27 21 c33
26 36 77 5 105 -21 18 -60 19 -1389 22 -1319 2 -1368 2 -1390 -16z"/>
<path d="M4045 7195 c-5 -2 -22 -6 -36 -9 -53 -12 -60 -99 -10 -125 14 -8 441
-11 1384 -11 l1364 0 23 24 c28 31 29 71 1 99 l-22 22 -1347 2 c-741 1 -1351
0 -1357 -2z"/>
<path d="M1265 8353 c-44 -2 -204 -7 -356 -11 l-276 -7 -36 -28 c-42 -32 -61
-82 -54 -143 6 -59 30 -92 82 -114 38 -16 86 -19 458 -26 l416 -7 53 51 53 51
-1 65 c0 53 -5 70 -26 98 -37 49 -113 79 -189 76 -24 -1 -80 -3 -124 -5z"/>
<path d="M1208 6545 c-2 -3 -130 -6 -284 -7 l-281 -3 -36 -25 c-48 -33 -62
-62 -62 -131 0 -64 18 -98 72 -135 29 -19 45 -20 452 -23 407 -2 422 -2 454
18 57 35 82 78 81 142 -1 41 -7 65 -23 87 -44 62 -63 69 -222 76 -80 3 -148 4
-151 1z"/>
<path d="M743 4653 l-111 -4 -43 -37 c-41 -37 -42 -39 -43 -103 -1 -77 11
-105 61 -139 l37 -25 425 -3 c441 -4 444 -3 493 38 10 8 18 20 18 27 0 7 4 13
9 13 9 0 21 48 22 83 0 40 -43 107 -85 132 l-43 25 -314 -2 c-173 -1 -364 -4
-426 -5z"/>
</g>
</svg>
